<?xml version="1.0" encoding="UTF-8"?>
<svg version="1.1" xmlns="http://www.w3.org/2000/svg" width="1024" height="1024">
<path d="M0 0 C0 0.33 0 0.66 0 1 C0.63687744 1.10957031 1.27375488 1.21914062 1.92993164 1.33203125 C35.81447634 7.29508088 68.72060698 19.5661912 96 41 C97.25296875 41.96679688 97.25296875 41.96679688 98.53125 42.953125 C106.44339626 49.15585695 113.97985721 55.79985354 121 63 C121.96292969 63.91265625 121.96292969 63.91265625 122.9453125 64.84375 C129.38141422 71.03317186 134.78698323 77.78477989 140 85 C140.60497314 85.83047852 140.60497314 85.83047852 141.22216797 86.67773438 C173.39790051 131.34247555 185.65242432 187.79622716 178 242 C177.8870459 242.81436523 177.7740918 243.62873047 177.65771484 244.46777344 C173.30262677 274.23628709 161.67544656 304.56171231 144 329 C143.30390625 329.97138916 143.30390625 329.97138916 142.59375 330.96240234 C137.09197764 338.59360417 131.42009667 345.95751678 125 352.84765625 C123.15918281 354.82869194 121.42275357 356.86437254 119.6875 358.9375 C107.18294919 373.18355218 91.32439797 384.55781981 75 394 C74.35933594 394.38365723 73.71867187 394.76731445 73.05859375 395.16259766 C53.65074887 406.77692228 33.01177644 414.02966658 11 419 C10.19699463 419.185625 9.39398926 419.37125 8.56665039 419.5625 C1.77285588 421.03926322 -5.0104573 421.63280477 -11.9375 422.125 C-13.04029297 422.21136719 -14.14308594 422.29773438 -15.27929688 422.38671875 C-22.20165218 422.90130091 -29.06027424 423.113573 -36 423 C-37.25683594 422.98582031 -38.51367188 422.97164062 -39.80859375 422.95703125 C-91.32287872 420.90533206 -138.69071945 399.00425316 -176 364 C-176.52464844 363.50935059 -177.04929687 363.01870117 -177.58984375 362.51318359 C-196.41076014 344.76262533 -211.12217834 323.42512718 -222 300 C-222.30389648 299.36271973 -222.60779297 298.72543945 -222.92089844 298.06884766 C-231.09456153 280.87973012 -235.87813907 262.73116557 -239 244 C-239.11859375 243.31421875 -239.2371875 242.6284375 -239.359375 241.921875 C-247.9917389 189.71662662 -235.64154105 132.52145696 -204.875 89.4375 C-171.19060695 43.5431734 -122.74000042 10.18710325 -65.76464844 1.37890625 C-43.83573918 -1.62653946 -22.03390191 -0.98317058 0 0 Z M-120 44 C-120.92184082 44.49717529 -120.92184082 44.49717529 -121.86230469 45.00439453 C-133.41095296 51.24847351 -143.61951274 58.71744232 -153.6875 67.1171875 C-156 69 -156 69 -159 71 C-159 71.66 -159 72.32 -159 73 C-159.58265625 73.2578125 -160.1653125 73.515625 -160.765625 73.78125 C-163.1802903 75.09834017 -164.81740177 76.55088384 -166.75 78.5 C-167.36359375 79.1084375 -167.9771875 79.716875 -168.609375 80.34375 C-170.21434088 81.89484277 -170.21434088 81.89484277 -170 84 C-170.66 84 -171.32 84 -172 84 C-204.70161029 118.53402811 -220.09363074 167.08307757 -219.18359375 214.01171875 C-217.45676805 268.95909806 -193.88305019 316.31893033 -154.1875 353.6875 C-116.70143995 386.15476523 -67.65090779 402.86348577 -18.12353516 399.53759766 C26.07871857 396.1487337 66.48642943 378.05138795 98.47314453 347.45947266 C99.50315775 346.47491573 100.53812459 345.4955186 101.57763672 344.52099609 C136.49004218 311.7103408 155.70215877 265.42668639 157.9140625 217.85449219 C159.43543248 167.32080531 141.18241277 118.13831986 107 81 C106.24662354 80.17870605 106.24662354 80.17870605 105.47802734 79.34082031 C91.72509748 64.538082 75.71521651 53.55705044 58 44 C57.37528809 43.65743164 56.75057617 43.31486328 56.10693359 42.96191406 C2.8262651 13.93754099 -67.04662568 14.86304284 -120 44 Z " fill="#000000" transform="translate(543,160)"/>
<path d="M0 0 C11.22 0 22.44 0 34 0 C34 68.31 34 136.62 34 207 C53.47 207 72.94 207 93 207 C140.96519461 213.85217066 140.96519461 213.85217066 156.5703125 233.00390625 C162.22406364 240.89753147 164.4471603 249.20416991 163.875 258.859375 C162.4728093 262.28973439 160.19049659 264.27734997 157 266 C153.21531883 266.7343079 149.48990822 266.67491259 145.64427185 266.63491821 C144.49519492 266.64271817 143.34611798 266.65051812 142.16222054 266.65855443 C138.98126054 266.67502819 135.80125725 266.66912675 132.62032139 266.65362334 C129.18670994 266.64230192 125.75322697 266.6597763 122.31964111 266.67352295 C115.59696754 266.69575093 108.87457315 266.69095648 102.15188866 266.67645974 C96.68866422 266.66516665 91.225518 266.66363689 85.76228523 266.66907883 C84.98466528 266.66984499 84.20704532 266.67061116 83.40586113 266.67140054 C81.82614197 266.67299917 80.24642283 266.67462023 78.66670371 266.6762635 C63.85559962 266.69051946 49.0446503 266.67413023 34.2335716 266.64726166 C21.52355685 266.62491858 8.8137704 266.62880678 -3.89624023 266.65185547 C-18.65597144 266.67860864 -33.41556707 266.68915081 -48.17531914 266.67379415 C-49.74891307 266.6722014 -51.32250702 266.67062955 -52.896101 266.66907883 C-53.6703425 266.66830745 -54.44458399 266.66753607 -55.24228736 266.66674132 C-60.69978699 266.66242318 -66.15720065 266.6697132 -71.61468697 266.68147659 C-78.26432885 266.69549461 -84.9136756 266.69171647 -91.56328363 266.66507287 C-94.95643146 266.65192557 -98.3490871 266.64679706 -101.74223137 266.66331863 C-105.41906782 266.67692894 -109.09450861 266.65990996 -112.77125549 266.63491821 C-113.84595504 266.64607182 -114.92065458 266.65722543 -116.02792078 266.66871703 C-123.25497353 266.57305905 -123.25497353 266.57305905 -127.13929653 263.58531761 C-130.61415565 258.75724338 -130.46789649 254.83199551 -130 249 C-127.20604046 236.30391916 -119.69567938 227.83315573 -109 220.875 C-76.21277143 201.60398459 -37.86123895 207 -1 207 C-0.67 138.69 -0.34 70.38 0 0 Z " fill="#000000" transform="translate(495,599)"/>
<path d="M0 0 C6.252958 7.5267087 11.30992722 15.16184226 10.8359375 25.22265625 C9.79644247 32.77327403 6.44935967 37.35983454 0.5234375 42.03515625 C-6.06551766 46.58233775 -13.21673595 50.07695937 -20.33300781 53.71728516 C-33.93992791 60.70539485 -46.13695252 68.78528858 -58.1015625 78.28515625 C-60.75648916 80.30145456 -63.42824091 82.29326958 -66.1015625 84.28515625 C-66.8234375 83.31578125 -67.5453125 82.34640625 -68.2890625 81.34765625 C-79.67524944 68.07723034 -98.86175662 59.69728281 -116.0390625 58.37109375 C-123.79668845 58.04785934 -131.37246467 58.55278827 -139.1015625 59.28515625 C-139.296875 57.234375 -139.4921875 55.18359375 -139.6875 53.1328125 C-139.89246094 52.21822266 -139.89246094 52.21822266 -140.1015625 51.28515625 C-140.7615625 50.95515625 -141.4215625 50.62515625 -142.1015625 50.28515625 C-142.4453125 48.3359375 -142.4453125 48.3359375 -142.6015625 45.59765625 C-142.87086582 41.47486729 -143.18121784 37.37179377 -143.60546875 33.26171875 C-148.24871163 -12.14113906 -148.24871163 -12.14113906 -135.09375 -29.33984375 C-126.64012004 -39.23677638 -116.57686215 -45.53116433 -103.6015625 -47.65234375 C-67.79519138 -49.8514752 -24.02787568 -25.36275766 0 0 Z " fill="#000000" transform="translate(631.1015625,248.71484375)"/>
<path d="M0 0 C1.4540625 1.2375 1.4540625 1.2375 2.9375 2.5 C3.90816406 3.32177734 3.90816406 3.32177734 4.8984375 4.16015625 C6.29190661 5.38008925 7.65267277 6.63848423 8.9765625 7.93359375 C24.32886718 22.68215611 43.33815167 25.60935962 63.7890625 25.23828125 C67.31436234 25.15762033 70.55673657 24.76821968 74 24 C76.14121542 28.56854151 76.79843664 33.11669324 77.5 38.0625 C77.62673096 38.93938477 77.75346191 39.81626953 77.8840332 40.71972656 C81.5752541 66.9299664 84.57948699 91.81751333 69.59765625 115.1875 C63.59480632 122.98250513 53.65061823 128.4933634 44 130 C7.52408228 132.94629142 -29.88912123 112.39180197 -56.875 89.5625 C-64.95747415 82.55170663 -72.99317273 74.57764529 -74.30078125 63.4375 C-74.33113503 57.12391455 -73.82105962 52.88911149 -69.21875 48.17578125 C-63.56911954 42.96624881 -57.82278532 39.4748015 -50.9375 36.125 C-34.74693086 27.94241905 -18.47258221 18.82656927 -5.7265625 5.671875 C-3 3 -3 3 -1 3 C-0.67 2.01 -0.34 1.02 0 0 Z " fill="#000000" transform="translate(458,412)"/>
<path d="M0 0 C15.19745327 -0.42523288 30.74135635 2.26252694 42.3359375 12.78515625 C53.31228943 24.63228349 53.59677452 37.87103253 53.14453125 53.06640625 C52.71350296 60.32969155 51.01151835 67.20469383 48.9609375 74.16015625 C48.59871094 75.42859375 48.23648438 76.69703125 47.86328125 78.00390625 C40.63474159 101.33126135 26.29911297 129.82379658 4.9609375 143.16015625 C3.9915625 143.77890625 3.0221875 144.39765625 2.0234375 145.03515625 C-5.99943834 147.98233513 -13.23565798 147.60722538 -21.0390625 144.16015625 C-30.10544956 138.4714428 -34.32030931 127.70631359 -38.8515625 118.41015625 C-45.13771209 105.5464541 -52.80268642 94.10476533 -62.0390625 83.16015625 C-62.60753906 82.48082031 -63.17601562 81.80148437 -63.76171875 81.1015625 C-66.09553888 78.34341144 -68.46052923 75.69331943 -71.0390625 73.16015625 C-69.57684248 69.87943926 -67.70029498 67.48919797 -65.3515625 64.78515625 C-53.0387276 49.58440189 -49.89804353 33.28073906 -51.0390625 14.16015625 C-51.32611112 12.15299054 -51.63705662 10.14749175 -52.0390625 8.16015625 C-39.93302282 4.02689834 -27.70093655 2.54109797 -15.0390625 1.16015625 C-13.8221875 1.02609375 -12.6053125 0.89203125 -11.3515625 0.75390625 C-7.57011087 0.39185237 -3.79269992 0.19987236 0 0 Z " fill="#000000" transform="translate(627.0390625,349.83984375)"/>
<path d="M0 0 C3.91965941 5.41889506 6.74979494 11.42683426 9.625 17.4375 C18.86143042 36.27541642 30.69757376 53.57664931 46 68 C45.47212891 68.69222656 45.47212891 68.69222656 44.93359375 69.3984375 C43.87365414 70.79877547 42.82241881 72.20572141 41.77734375 73.6171875 C40.62599451 75.16075461 39.45260647 76.68822184 38.25390625 78.1953125 C24.93643513 95.69488479 24.47303496 115.91822574 26 137 C17.94379701 138.9115998 9.82765908 139.72614334 1.59814453 140.43261719 C-0.60087471 140.62291229 -2.79838 140.826491 -4.99609375 141.03125 C-26.07416737 142.92516582 -46.56446699 143.84313189 -64 130 C-72.0817892 122.67542349 -77.40873376 113.03696989 -78 102 C-78.061875 101.22398437 -78.12375 100.44796875 -78.1875 99.6484375 C-79.62882569 67.66902375 -62.8771206 34.8607584 -43 11 C-42.41734375 10.28199219 -41.8346875 9.56398438 -41.234375 8.82421875 C-39.87209726 7.17427557 -38.44270218 5.58010239 -37 4 C-36.34 4 -35.68 4 -35 4 C-35 3.34 -35 2.68 -35 2 C-24.48566098 -6.07782204 -10.85122373 -9.58945353 0 0 Z " fill="#000000" transform="translate(422,254)"/>
<path d="M0 0 C11.3890662 8.62366994 18.77003676 18.76039342 21.31640625 33.10546875 C22.79344546 47.36278404 19.54481195 58.90900478 10.74658203 70.11328125 C6.69638305 74.98587806 2.21914616 78.57259245 -3.3125 81.6875 C-4.00601563 82.09484375 -4.69953125 82.5021875 -5.4140625 82.921875 C-15.97044532 88.37798297 -29.02300819 88.86266957 -40.3125 85.6875 C-53.35281088 80.84628459 -63.0075855 72.05145489 -69.3125 59.6875 C-74.82412984 46.6711048 -74.07185432 32.80453314 -69.375 19.6875 C-64.64499026 9.08671346 -55.83988052 0.50339638 -45.3125 -4.3125 C-44.58160156 -4.64894531 -43.85070312 -4.98539062 -43.09765625 -5.33203125 C-29.07240739 -10.58250903 -12.24586937 -8.15167317 0 0 Z " fill="#000000" transform="translate(538.3125,332.3125)"/>
<path d="M0 0 C1.65 0 3.3 0 5 0 C5 0.33 5 0.66 5 1 C3.35 1 1.7 1 0 1 C0 0.67 0 0.34 0 0 Z " fill="#060605" transform="translate(491,543)"/>
<path d="M0 0 C3 1 3 1 3 1 Z " fill="#070606" transform="translate(592,352)"/>
<path d="M0 0 C3 1 3 1 3 1 Z " fill="#070704" transform="translate(504,208)"/>
<path d="M0 0 C2 1 2 1 2 1 Z " fill="#080806" transform="translate(473,540)"/>
<path d="" fill="#101010" transform="translate(0,0)"/>
<path d="M0 0 C2 1 2 1 2 1 Z " fill="#080908" transform="translate(577,355)"/>
<path d="" fill="#0B0A0A" transform="translate(0,0)"/>
<path d="M0 0 C2 1 2 1 2 1 Z " fill="#080807" transform="translate(539,200)"/>
<path d="M0 0 C2 1 2 1 2 1 Z " fill="#080506" transform="translate(528,200)"/>
<path d="M0 0 C2 1 2 1 2 1 Z " fill="#100E0E" transform="translate(408,184)"/>
<path d="M0 0 C2 1 2 1 2 1 Z " fill="#0D0E0E" transform="translate(598,176)"/>
<path d="M0 0 C2 1 2 1 2 1 Z " fill="#121313" transform="translate(423,176)"/>
<path d="M0 0 C2 1 2 1 2 1 Z " fill="#141612" transform="translate(440,169)"/>
<path d="" fill="#474747" transform="translate(0,0)"/>
<path d="" fill="#19161B" transform="translate(0,0)"/>
<path d="" fill="#171919" transform="translate(0,0)"/>
<path d="" fill="#141413" transform="translate(0,0)"/>
<path d="" fill="#141413" transform="translate(0,0)"/>
<path d="" fill="#111210" transform="translate(0,0)"/>
<path d="" fill="#0E0C0E" transform="translate(0,0)"/>
<path d="" fill="#0A070B" transform="translate(0,0)"/>
<path d="" fill="#060505" transform="translate(0,0)"/>
<path d="" fill="#060405" transform="translate(0,0)"/>
<path d="" fill="#090A0A" transform="translate(0,0)"/>
<path d="" fill="#08070A" transform="translate(0,0)"/>
<path d="" fill="#0B0A0A" transform="translate(0,0)"/>
<path d="" fill="#0C0C0C" transform="translate(0,0)"/>
<path d="" fill="#050908" transform="translate(0,0)"/>
<path d="" fill="#11100F" transform="translate(0,0)"/>
<path d="" fill="#0A0908" transform="translate(0,0)"/>
<path d="" fill="#080909" transform="translate(0,0)"/>
<path d="" fill="#0B0B08" transform="translate(0,0)"/>
<path d="" fill="#080807" transform="translate(0,0)"/>
<path d="" fill="#090908" transform="translate(0,0)"/>
<path d="" fill="#0B0809" transform="translate(0,0)"/>
<path d="" fill="#09090A" transform="translate(0,0)"/>
<path d="" fill="#090A0C" transform="translate(0,0)"/>
<path d="" fill="#080708" transform="translate(0,0)"/>
<path d="" fill="#070807" transform="translate(0,0)"/>
<path d="" fill="#080706" transform="translate(0,0)"/>
<path d="" fill="#090707" transform="translate(0,0)"/>
<path d="" fill="#09080A" transform="translate(0,0)"/>
<path d="" fill="#060506" transform="translate(0,0)"/>
<path d="" fill="#0A0A09" transform="translate(0,0)"/>
<path d="" fill="#0A0A0B" transform="translate(0,0)"/>
<path d="" fill="#0B0A08" transform="translate(0,0)"/>
<path d="" fill="#0A0A0A" transform="translate(0,0)"/>
<path d="" fill="#121214" transform="translate(0,0)"/>
<path d="" fill="#090909" transform="translate(0,0)"/>
<path d="" fill="#060707" transform="translate(0,0)"/>
<path d="" fill="#141313" transform="translate(0,0)"/>
<path d="" fill="#090808" transform="translate(0,0)"/>
<path d="" fill="#0A0909" transform="translate(0,0)"/>
<path d="" fill="#131312" transform="translate(0,0)"/>
<path d="" fill="#100E0F" transform="translate(0,0)"/>
<path d="" fill="#080807" transform="translate(0,0)"/>
<path d="" fill="#09090A" transform="translate(0,0)"/>
<path d="" fill="#070A09" transform="translate(0,0)"/>
<path d="" fill="#121112" transform="translate(0,0)"/>
<path d="" fill="#090908" transform="translate(0,0)"/>
<path d="" fill="#131213" transform="translate(0,0)"/>
<path d="" fill="#0A080B" transform="translate(0,0)"/>
<path d="" fill="#090909" transform="translate(0,0)"/>
<path d="" fill="#080B0A" transform="translate(0,0)"/>
<path d="" fill="#090907" transform="translate(0,0)"/>
<path d="" fill="#080708" transform="translate(0,0)"/>
<path d="" fill="#090A08" transform="translate(0,0)"/>
<path d="" fill="#0A0A07" transform="translate(0,0)"/>
<path d="" fill="#090808" transform="translate(0,0)"/>
<path d="" fill="#090A08" transform="translate(0,0)"/>
<path d="" fill="#080908" transform="translate(0,0)"/>
<path d="" fill="#0B0B0B" transform="translate(0,0)"/>
<path d="" fill="#0C0A0D" transform="translate(0,0)"/>
<path d="" fill="#121312" transform="translate(0,0)"/>
<path d="" fill="#08080A" transform="translate(0,0)"/>
<path d="" fill="#090907" transform="translate(0,0)"/>
<path d="" fill="#0C0E0C" transform="translate(0,0)"/>
<path d="" fill="#070706" transform="translate(0,0)"/>
<path d="" fill="#141115" transform="translate(0,0)"/>
<path d="" fill="#0A0909" transform="translate(0,0)"/>
<path d="" fill="#131312" transform="translate(0,0)"/>
<path d="" fill="#0B0B09" transform="translate(0,0)"/>
<path d="" fill="#080606" transform="translate(0,0)"/>
<path d="" fill="#0B0A09" transform="translate(0,0)"/>
<path d="" fill="#0C0B09" transform="translate(0,0)"/>
<path d="" fill="#090A09" transform="translate(0,0)"/>
<path d="" fill="#0A090C" transform="translate(0,0)"/>
<path d="" fill="#080507" transform="translate(0,0)"/>
<path d="" fill="#0A0808" transform="translate(0,0)"/>
<path d="" fill="#0E0D0C" transform="translate(0,0)"/>
<path d="" fill="#0B0909" transform="translate(0,0)"/>
<path d="" fill="#090909" transform="translate(0,0)"/>
<path d="" fill="#181613" transform="translate(0,0)"/>
<path d="" fill="#141211" transform="translate(0,0)"/>
<path d="" fill="#6E6E6F" transform="translate(0,0)"/>
</svg>
